<svg width="30" height="30" viewBox="0 0 30 30" xmlns="http://www.w3.org/2000/svg"
    color="#fff"
    class="size-8 text-muted-foreground hover:text-white transition-all group-hover:text-white">
    <path fill-rule="evenodd" clip-rule="evenodd"
        d="M27.9601 11.9511H25.4534L21.649 17.1156C21.4693 17.066 21.2842 17.0391 21.0979 17.0356H19.0979L20.5468 11.9511H18.4312L16.9823 17.0356H13.0001L11.5601 11.9511H9.44454L10.8934 17.0356H8.90232C8.70648 17.0376 8.51193 17.0675 8.32454 17.1244L4.53787 11.9511H2.01343L6.92009 18.6356C6.89213 18.7761 6.87725 18.9189 6.87565 19.0622V27.1867C6.87448 27.4536 6.92604 27.7181 7.02736 27.965C7.12869 28.2119 7.27778 28.4363 7.46609 28.6255C7.6544 28.8146 7.87822 28.9647 8.12469 29.0671C8.37115 29.1695 8.63542 29.2222 8.90232 29.2222H21.0979C21.6362 29.2199 22.1517 29.0044 22.5315 28.6229C22.9113 28.2414 23.1245 27.725 23.1245 27.1867V19.0622C23.1249 18.9125 23.107 18.7632 23.0712 18.6178L27.9601 11.9511ZM16.0134 22.1111H13.9868C13.8451 22.1244 13.7023 22.1079 13.5673 22.0628C13.4324 22.0177 13.3084 21.9449 13.2032 21.8491C13.098 21.7533 13.014 21.6366 12.9565 21.5064C12.899 21.3763 12.8693 21.2356 12.8693 21.0933C12.8693 20.9511 12.899 20.8104 12.9565 20.6802C13.014 20.5501 13.098 20.4334 13.2032 20.3376C13.3084 20.2418 13.4324 20.169 13.5673 20.1239C13.7023 20.0788 13.8451 20.0623 13.9868 20.0756H16.0134C16.1551 20.0623 16.2979 20.0788 16.4329 20.1239C16.5678 20.169 16.6918 20.2418 16.797 20.3376C16.9022 20.4334 16.9862 20.5501 17.0437 20.6802C17.1012 20.8104 17.1309 20.9511 17.1309 21.0933C17.1309 21.2356 17.1012 21.3763 17.0437 21.5064C16.9862 21.6366 16.9022 21.7533 16.797 21.8491C16.6918 21.9449 16.5678 22.0177 16.4329 22.0628C16.2979 22.1079 16.1551 22.1244 16.0134 22.1111Z"
        fill="currentColor"></path>
    <path fill-rule="evenodd" clip-rule="evenodd"
        d="M29.2223 8.90222V9.92444H0.777832V8.90222C0.777832 6.74748 1.6338 4.68099 3.15743 3.15737C4.68106 1.63374 6.74754 0.777771 8.90228 0.777771H21.0978C23.2526 0.777771 25.3191 1.63374 26.8427 3.15737C28.3663 4.68099 29.2223 6.74748 29.2223 8.90222Z"
        fill="currentColor"></path>
</svg>