<svg xmlns="http://www.w3.org/2000/svg" width="40" height="40" viewBox="0 0 40 40" fill="currentColor" class="text-primary-500/30 px-1"><g opacity=".3" clip-path="url(#a)" fill="#2695E7"><path d="M36.856.013a1.17 1.17 0 0 0-1.33.988C34.072 10.87 27.542 18.033 20 18.033S5.929 10.87 4.474 1.003a1.172 1.172 0 0 0-2.318.341c.78 5.294 2.97 10.112 6.166 13.566 2.37 2.56 5.207 4.285 8.219 5.037v3.634l1.437-1.01A3.5 3.5 0 0 1 20 21.93c.727 0 1.427.221 2.022.64l1.437 1.01v-3.634c3.012-.752 5.85-2.477 8.219-5.038 3.196-3.454 5.386-8.272 6.166-13.566a1.17 1.17 0 0 0-.989-1.33m-11.423 27.82-4.758-3.345a1.17 1.17 0 0 0-1.348 0l-4.758 3.345c-.312.22-.498.577-.498.959v6.691c0 .381.186.739.498.958l4.758 3.346a1.17 1.17 0 0 0 1.348 0l4.758-3.346c.312-.219.498-.577.498-.958v-6.691c0-.382-.186-.74-.498-.959"></path></g><defs><clipPath id="a"><path fill="#fff" d="M0 0h40v40H0z"></path></clipPath></defs></svg>