<svg
    xmlns="http://www.w3.org/2000/svg"
    width="18"
    height="17"
    viewBox="0 0 18 17"
    fill="currentColor"
    class="text-cNeutral-25 size-5"
    color="#fff"
>
    <path
        d="M10.6562 12.1572L1.40625 2.90723L1 0.469727C1 0.157227 1.15625 0.000976562 1.46875 0.000976562L3.90625 0.407227L13.1562 9.65723L10.6562 12.1572ZM16.8438 14.4385C17.0521 14.6676 17.0417 14.9072 16.8125 15.1572L16.125 15.8447C15.875 16.0531 15.6354 16.0531 15.4062 15.8447L13.5625 14.001L11.75 15.001C11.5208 15.1051 11.3229 15.0739 11.1562 14.9072L10.5938 14.3447C10.4062 14.1156 10.4062 13.8864 10.5938 13.6572L14.6562 9.59473C14.8854 9.40723 15.1146 9.40723 15.3438 9.59473L15.9062 10.1572C16.0521 10.3239 16.0833 10.5218 16 10.751L15 12.5947L16.8438 14.4385ZM16.5938 2.90723L12.2188 7.28223L9.75 4.78223L14.0938 0.407227L16.5312 0.000976562C16.8438 0.000976562 17 0.157227 17 0.469727L16.5938 2.90723ZM5.78125 8.71973L8.25 11.2197L6.59375 12.876L7.375 13.6572C7.5625 13.8864 7.5625 14.1156 7.375 14.3447L6.8125 14.9072C6.64583 15.0739 6.44792 15.1051 6.21875 15.001L4.40625 14.001L2.5625 15.8447C2.33333 16.0531 2.09375 16.0531 1.84375 15.8447L1.15625 15.1572C0.947917 14.9072 0.947917 14.6676 1.15625 14.4385L3 12.5947L2 10.751C1.91667 10.5218 1.94792 10.3239 2.09375 10.1572L2.65625 9.59473C2.88542 9.40723 3.11458 9.40723 3.34375 9.59473L4.125 10.376L5.78125 8.71973Z"
        fill="currentColor"
    ></path>
</svg>