<svg width="28" height="32" viewBox="0 0 28 32" fill="none" xmlns="http://www.w3.org/2000/svg" class="size-5 lsm:size-8"><path d="M22 0.000976562L28 6.00098H22V0.000976562ZM20 6.00098C20 6.58431 20.1875 7.06348 20.5625 7.43848C20.9375 7.81348 21.4167 8.00098 22 8.00098H28V23.001C27.9583 23.8343 27.6667 24.5426 27.125 25.126C26.5417 25.6676 25.8333 25.9593 25 26.001H9C8.16667 25.9593 7.45833 25.6676 6.875 25.126C6.33333 24.5426 6.04167 23.8343 6 23.001V3.00098C6.04167 2.16764 6.33333 1.45931 6.875 0.875977C7.45833 0.33431 8.16667 0.0426432 9 0.000976562H20V6.00098ZM20.5 32.001C21.4167 31.9176 21.9167 31.4176 22 30.501C21.9167 29.5843 21.4167 29.0843 20.5 29.001H7.5C6.20833 28.9593 5.14583 28.5218 4.3125 27.6885C3.47917 26.8551 3.04167 25.7926 3 24.501V7.50098C2.91667 6.58431 2.41667 6.08431 1.5 6.00098C0.583333 6.08431 0.0833333 6.58431 0 7.50098V24.501C0.0416667 26.626 0.770833 28.3968 2.1875 29.8135C3.60417 31.2301 5.375 31.9593 7.5 32.001H20.5Z" fill="white"></path></svg>