<svg width="30" height="32" viewBox="0 0 30 32" xmlns="http://www.w3.org/2000/svg" fill="none"
    color="#fff"
    class="size-8 text-muted-foreground hover:text-white transition-all group-hover:text-white">
    <path
        d="M15.524 17.407a9.6 9.6 0 0 0-5.759-2.85 8 8 0 0 0-.777-.04 6.08 6.08 0 0 0-4.387 1.72A6.25 6.25 0 0 0 2.92 21.4a9.6 9.6 0 0 0 2.85 5.76 9.6 9.6 0 0 0 5.76 2.85 6.25 6.25 0 0 0 5.164-1.68 6.26 6.26 0 0 0 1.68-5.165 9.6 9.6 0 0 0-2.85-5.76m.39 10.143a5.02 5.02 0 0 1-3.617 1.403 8.34 8.34 0 0 1-5.745-2.573c-2.905-2.905-3.43-7.104-1.171-9.363 2.258-2.259 6.458-1.734 9.363 1.17s3.43 7.104 1.17 9.363"
        fill="currentColor"></path>
    <path
        d="M11.42 31.108a10.7 10.7 0 0 1-6.43-3.168 10.7 10.7 0 0 1-3.167-6.43 8.4 8.4 0 0 1 .103-2.416C.108 21.88.83 26.121 3.82 29.111s7.222 3.71 10.007 1.9q-.751.142-1.515.142-.44 0-.891-.045"
        fill="currentColor"></path>
    <path
        d="M9.005 16.706a3.93 3.93 0 0 0-2.844 1.091c-1.828 1.828-1.303 5.328 1.17 7.803s5.974 3 7.803 1.17c1.828-1.828 1.303-5.328-1.17-7.802a7.26 7.26 0 0 0-4.959-2.262m-.35 7.018a.552.552 0 0 1-.493-.798l2.207-4.414a.552.552 0 1 1 .988.493L9.15 23.42a.55.55 0 0 1-.495.305m3.807-.857-1.103 2.207a.552.552 0 0 1-.988-.493l1.104-2.207a.552.552 0 0 1 .987.493M3.715 9.44c1.939 1.94 4.507 2.644 5.61 1.545 1.102-1.099.395-3.67-1.545-5.609a7.15 7.15 0 0 0-3.255-1.949 4 4 0 0 0-.906-.117 2 2 0 0 0-1.448.522c-.505.506-.65 1.343-.405 2.356A7.15 7.15 0 0 0 3.715 9.44m24.794-3.57a6 6 0 0 1-.175 1.598 10.5 10.5 0 0 1-2.843 4.785c-1.97 1.97-4.297 3.037-6.235 3.037l-.133-.005c1.57 1.225 4.796.292 7.244-2.155 2.456-2.457 3.386-5.697 2.142-7.26"
        fill="currentColor"></path>
    <path
        d="M24.71 11.473a9.4 9.4 0 0 0 2.551-4.264c.328-1.359.128-2.488-.563-3.18a2.7 2.7 0 0 0-1.967-.71c-1.646 0-3.756.974-5.478 2.696a9.4 9.4 0 0 0-2.551 4.264c-.331 1.36-.128 2.49.564 3.182 1.478 1.477 4.887.568 7.445-1.988m-2.054-.818-2.34.78a.553.553 0 0 1-.35-1.048l2.34-.78a.553.553 0 1 1 .35 1.049m-3.08-2.997 4.682-1.56a.553.553 0 0 1 .349 1.047l-4.682 1.56a.552.552 0 1 1-.35-1.047m-6.339-4.9a.55.55 0 0 0 .552-.552V.552a.552.552 0 1 0-1.104 0v1.655c0 .305.248.552.552.552m0 1.103a.55.55 0 0 0-.552.552v1.655a.552.552 0 0 0 1.104 0V4.414a.55.55 0 0 0-.552-.552m1.103 0h1.656a.552.552 0 0 0 0-1.103h-1.655a.552.552 0 0 0 0 1.103m-3.862 0h1.655a.552.552 0 0 0 0-1.103h-1.655a.552.552 0 0 0 0 1.103m14.89 16.162-1.104 1.103a.552.552 0 1 0 .78.78l1.104-1.103a.552.552 0 0 0-.78-.78m-2.759 2.758-1.103 1.104a.552.552 0 1 0 .78.78l1.103-1.104a.552.552 0 0 0-.78-.78m2.435 0a.552.552 0 0 0-.78.78l1.104 1.104a.552.552 0 0 0 .78-.78zm-2.758-2.758a.552.552 0 0 0-.78.78l1.103 1.103a.552.552 0 0 0 .78-.78z"
        fill="currentColor"></path>
</svg>