<svg
    xmlns="http://www.w3.org/2000/svg"
    width="27"
    height="26"
    viewBox="0 0 27 26"
    fill="none"
    class="size-4 lsm:size-5"
>
    <path
        d="m13.287 16.722-4.6-4.088c-.95-.845-2.498-.845-3.449 0a.667.667 0 0 0 0 1.022l6.899 6.132a.886.886 0 0 0 1.15 0c.95-.845.95-2.22 0-3.066m-6.109.112L3.82 20.19l1.99 1.99 3.357-3.357zm-1.995 6.533-1.988-1.989C2.386 20.57 1 21.144 1 22.287v1.165c0 .582.236 1.109.619 1.49.382.383.908.62 1.49.62h1.165c1.143 0 1.718-1.387.91-2.195M25.198.006l-6.96.995a.7.7 0 0 0-.445.25l-8.281 9.962 2.14 2.14 6.464-6.463a.703.703 0 1 1 .994.994l-6.463 6.464 2.14 2.14 9.962-8.281a.7.7 0 0 0 .25-.445l.995-6.96c.063-.438-.358-.859-.796-.796"
        fill="#fff"
    ></path>
    <path
        d="M4.388 15.564.327 13.53a.591.591 0 0 1 0-1.059l5.38-2.696L2.426 3.2a.593.593 0 0 1 .793-.795L9.78 5.692l2.69-5.39c.2-.402.857-.402 1.057 0l1.44 2.885L8.5 11l-.543.01C7 10.5 6.191 10.807 5.5 11.5l-.937.94c-.69.692-.74 1.328-.05 2.021l.488.49zM23.354 11l2.879 1.443a.593.593 0 0 1 0 1.06l-5.38 2.696 3.28 6.575a.59.59 0 0 1-.11.683.59.59 0 0 1-.683.112l-6.56-3.289-2.69 5.39c-.201.402-.858.402-1.058 0L11 21.603l.493-.602A1.77 1.77 0 0 0 14 21l.937-.94a1.78 1.78 0 0 0 0-2.511z"
        fill="#fff"
    ></path>
</svg>