<svg
    xmlns="http://www.w3.org/2000/svg"
    width="14"
    height="14"
    viewBox="0 0 14 14"
    fill="currentColor"
    class="text-cNeutral-25 size-5"
    color="#fff"
>
    <path
        d="M6 1.5C5.97917 1.91667 5.83333 2.27083 5.5625 2.5625C5.27083 2.83333 4.91667 2.97917 4.5 3C4.08333 2.97917 3.72917 2.83333 3.4375 2.5625C3.16667 2.27083 3.02083 1.91667 3 1.5C3.02083 1.08333 3.16667 0.729167 3.4375 0.4375C3.72917 0.166667 4.08333 0.0208333 4.5 0C4.91667 0.0208333 5.27083 0.166667 5.5625 0.4375C5.83333 0.729167 5.97917 1.08333 6 1.5ZM3.0625 7.9375C3.25 7.875 3.40625 7.75 3.53125 7.5625L4.78125 5.28125C5.01042 4.88542 5.32292 4.57292 5.71875 4.34375C6.09375 4.09375 6.52083 3.96875 7 3.96875C7.47917 3.96875 7.90625 4.09375 8.28125 4.34375C8.67708 4.57292 8.98958 4.88542 9.21875 5.28125L10.4688 7.5625C10.5729 7.75 10.7292 7.875 10.9375 7.9375C11.5625 8.16667 12.0625 8.54167 12.4375 9.0625C12.7917 9.58333 12.9792 10.1875 13 10.875C12.9792 11.75 12.6771 12.4896 12.0938 13.0938C11.4896 13.6771 10.75 13.9792 9.875 14C9.20833 14 8.61458 13.8125 8.09375 13.4375C7.80208 13.25 7.4375 13.1562 7 13.1562C6.5625 13.1562 6.19792 13.25 5.90625 13.4375C5.40625 13.7917 4.80208 13.9792 4.09375 14C3.21875 13.9792 2.48958 13.6771 1.90625 13.0938C1.30208 12.4896 0.989583 11.75 0.96875 10.875C0.989583 10.1875 1.1875 9.58333 1.5625 9.0625C1.9375 8.54167 2.4375 8.16667 3.0625 7.9375ZM8 1.5C8.02083 1.08333 8.16667 0.729167 8.4375 0.4375C8.72917 0.166667 9.08333 0.0208333 9.5 0C9.91667 0.0208333 10.2708 0.166667 10.5625 0.4375C10.8333 0.729167 10.9792 1.08333 11 1.5C10.9792 1.91667 10.8333 2.27083 10.5625 2.5625C10.2708 2.83333 9.91667 2.97917 9.5 3C9.08333 2.97917 8.72917 2.83333 8.4375 2.5625C8.16667 2.27083 8.02083 1.91667 8 1.5ZM14 5C13.9792 5.41667 13.8333 5.77083 13.5625 6.0625C13.2708 6.33333 12.9167 6.47917 12.5 6.5C12.0833 6.47917 11.7292 6.33333 11.4375 6.0625C11.1667 5.77083 11.0208 5.41667 11 5C11.0208 4.58333 11.1667 4.22917 11.4375 3.9375C11.7292 3.66667 12.0833 3.52083 12.5 3.5C12.9167 3.52083 13.2708 3.66667 13.5625 3.9375C13.8333 4.22917 13.9792 4.58333 14 5ZM0 5C0.0208333 4.58333 0.166667 4.22917 0.4375 3.9375C0.729167 3.66667 1.08333 3.52083 1.5 3.5C1.91667 3.52083 2.27083 3.66667 2.5625 3.9375C2.83333 4.22917 2.97917 4.58333 3 5C2.97917 5.41667 2.83333 5.77083 2.5625 6.0625C2.27083 6.33333 1.91667 6.47917 1.5 6.5C1.08333 6.47917 0.729167 6.33333 0.4375 6.0625C0.166667 5.77083 0.0208333 5.41667 0 5Z"
        fill="currentColor"
    ></path>
</svg>