<svg
    xmlns="http://www.w3.org/2000/svg"
    width="41"
    height="32"
    viewBox="0 0 41 32"
    fill="none"
    class="svg-shadow size-10 lsm:size-12"
>
    <path
        d="M26.358.07q.14 0 .279.01c1.492.094 3.004 1.08 3.542 2.525 3.194 8.58 4.789 12.08 5.765 20.894a32.3 32.3 0 0 1-4.71 3.574L25.007 8.655l-1.658.56 6.342 18.77a33 33 0 0 1-5.812 2.557l-7.07-18.894-1.64.613 7.025 18.776a25.2 25.2 0 0 1-5.51.832L9.249 15.141l-1.603.712 7.114 15.999c-2.046-.116-4.05-.541-5.948-1.34-4.06-5.047-6.809-10.291-7.921-16.189-.478-2.53 1.384-4.98 5.083-5.138l.577-.027.205-.539C7.548 6.52 8.607 5.8 9.709 5.575c1.101-.223 2.369.144 3.325.692l1.225.7.085-1.406c.093-1.537.97-2.775 2.28-3.34s3.099-.49 5.138.929l.978.68.358-1.138C23.708.746 24.973.07 26.358.07m8.96 11.587c3.012 4.229 5.208 10.427 4.863 16.06-2.582 2.048-5.12 3.16-7.506 3.323a8.75 8.75 0 0 1-3.882-.603c3.323-1.616 6.315-3.707 8.68-5.956l.314-.296-.047-.431c-.543-5.122-1.307-8.578-2.423-12.097"
        fill="#fff"
    ></path>
</svg>