<svg width="33" height="32" viewBox="0 0 33 32" xmlns="http://www.w3.org/2000/svg"
    color="#fff"
    class="size-8 text-muted-foreground hover:text-white transition-all group-hover:text-white">
    <g clip-path="url(#clip0_116_1322)">
        <path
            d="M31.9129 21.9246L28.8809 18.8923L22.6086 25.1646C21.489 26.2842 20.0837 27.0142 18.5574 27.2874L22.5537 31.2837C22.9197 31.6499 23.5134 31.6499 23.8794 31.2837L31.9129 23.2505C32.2791 22.8843 32.2791 22.2905 31.9129 21.9246Z"
            fill="currentColor"></path>
        <path
            d="M27.6458 17.4758C28.7027 16.4192 28.7029 14.6997 27.6472 13.6423C27.646 13.6411 27.6448 13.6399 27.6436 13.6387C27.3823 13.3777 27.0772 13.1765 26.7449 13.042C27.033 12.3132 27.0938 11.0808 26.1394 10.1262C26.137 10.1238 26.1345 10.1211 26.1319 10.1187C25.8718 9.86036 25.5686 9.66114 25.2385 9.52735C25.5266 8.79908 25.5877 7.56641 24.6338 6.61231C24.6331 6.61158 24.6326 6.61109 24.6321 6.6106C24.3706 6.34912 24.0652 6.14746 23.7324 6.01294C24.0205 5.28418 24.0813 4.05151 23.127 3.09692C23.1267 3.09692 23.1267 3.09668 23.1265 3.09668C23.1262 3.09644 23.126 3.09619 23.1257 3.09595C22.0684 2.03857 20.3482 2.03857 19.2908 3.09595L17.5132 4.87329L18.4221 5.78223C19.9368 7.29688 19.9368 9.76124 18.4224 11.2759C17.9126 11.7854 17.2864 12.1355 16.6038 12.3023C16.4404 12.9678 16.0996 13.5986 15.5803 14.1177C15.0713 14.6267 14.4461 14.9766 13.7642 15.1436C13.5974 15.8252 13.2473 16.4507 12.7385 16.9595C12.2295 17.4685 11.6043 17.8184 10.9224 17.9854C10.7556 18.667 10.4055 19.2925 9.89674 19.8015C9.16309 20.5349 8.18751 20.9392 7.14991 20.9392C6.11231 20.9392 5.13672 20.5352 4.40308 19.8013L3.49414 18.8923L0.462158 21.9246C0.0959472 22.2908 0.0959472 22.8843 0.462158 23.2505L8.49537 31.2837C8.86158 31.6499 9.45508 31.6497 9.8213 31.2837L15.5718 25.5335H17.1919C18.7373 25.5335 20.1902 24.9314 21.283 23.8389L27.6458 17.4758Z"
            fill="currentColor"></path>
        <path
            d="M5.72913 18.4756C6.5138 19.2605 7.78626 19.2605 8.57093 18.4756C9.35584 17.6909 9.35584 16.4187 8.57093 15.6338C9.35584 16.4187 10.6281 16.4187 11.413 15.6338C12.1976 14.8491 12.1976 13.5767 11.413 12.792C12.1976 13.5767 13.4701 13.5767 14.2548 12.792C15.0394 12.0073 15.0394 10.7349 14.2548 9.9502C15.0394 10.7349 16.3119 10.7349 17.0966 9.9502C17.8815 9.16529 17.8815 7.89307 17.0966 7.10816L13.0897 3.10132C12.3051 2.31665 11.0326 2.31665 10.2479 3.10132C9.46326 3.88599 9.46326 5.15845 10.2479 5.94312L10.7499 6.44532C9.96521 5.6604 8.69275 5.6604 7.90808 6.44532C7.12342 7.22998 7.12342 8.50245 7.90808 9.28711L8.91224 10.2913C8.12757 9.5066 6.8551 9.5066 6.07044 10.2913C5.28552 11.0759 5.28552 12.3484 6.07044 13.1331L7.07459 14.1375C6.28967 13.3525 5.01746 13.3525 4.23254 14.1375C3.44788 14.9221 3.44788 16.1943 4.23254 16.9793L5.72913 18.4756Z"
            fill="currentColor"></path>
        <path
            d="M17.9648 1.76998C18.1035 1.63131 18.2502 1.50387 18.4028 1.38546L17.8545 0.837119C17.5693 0.551719 17.1331 0.481162 16.7725 0.661338L14.4585 1.81832L16.1875 3.54757L17.9648 1.76998Z"
            fill="currentColor"></path>
    </g>
    <defs>
        <clipPath id="clip0_116_1322">
            <rect width="32" height="32" fill="white" transform="translate(0.25)"></rect>
        </clipPath>
    </defs>
</svg>