<svg xmlns="http://www.w3.org/2000/svg" width="30" height="32" viewBox="0 0 30 32" fill="currentColor" class="text-primary-500/30 px-1"><path d="M26.611 11.611C25.635 3.631 21.413 0 15 0S4.364 3.63 3.388 11.611c-.6 4.905-2.332 12.948-3.039 16.13a1.543 1.543 0 0 0 1.017 1.798l7.142 2.382a1.543 1.543 0 0 0 2.028-1.366l.623-9.726a1.54 1.54 0 0 0-.872-1.49l-4.65-2.23a1.214 1.214 0 0 1-.569-1.62l1.096-2.284a1.214 1.214 0 0 1 1.62-.57l4.687 2.25c.535.257.875.798.875 1.392v5.893c0 .23.127.44.33.548l1.031.55a.62.62 0 0 0 .585 0l1.032-.55a.62.62 0 0 0 .33-.548v-5.893c0-.594.34-1.135.875-1.392l4.687-2.25a1.214 1.214 0 0 1 1.62.57l1.095 2.283c.29.605.036 1.33-.569 1.62l-4.65 2.232a1.54 1.54 0 0 0-.871 1.49l.623 9.725a1.543 1.543 0 0 0 2.028 1.366l7.142-2.382a1.54 1.54 0 0 0 1.017-1.798c-.707-3.182-2.44-11.225-3.04-16.13" fill="currentColor"></path></svg>