<svg
    xmlns="http://www.w3.org/2000/svg"
    width="16"
    height="14"
    viewBox="0 0 16 14"
    fill="currentColor"
    class="text-cNeutral-25 size-5"
    color="#fff"
>
    <path
        d="M0 4.96875V4.78125C0.0208333 3.65625 0.375 2.69792 1.0625 1.90625C1.75 1.09375 2.63542 0.583333 3.71875 0.375C4.42708 0.270833 5.125 0.322917 5.8125 0.53125C6.5 0.739583 7.10417 1.10417 7.625 1.625L8 2L8.34375 1.625C8.88542 1.10417 9.48958 0.739583 10.1562 0.53125C10.8438 0.322917 11.5521 0.270833 12.2812 0.375C13.3646 0.583333 14.25 1.09375 14.9375 1.90625C15.625 2.69792 15.9792 3.65625 16 4.78125V4.96875C15.9792 6.32292 15.4792 7.45833 14.5 8.375L8.875 13.6562C8.625 13.8854 8.33333 14 8 14C7.66667 14 7.375 13.8854 7.125 13.6562L1.5 8.375C0.520833 7.45833 0.0208333 6.32292 0 4.96875Z"
        fill="currentColor"
    ></path>
</svg>