<svg xmlns="http://www.w3.org/2000/svg" width="29" height="31" viewBox="0 0 29 31"
    fill="none"
    color="#fff"
    class="size-8 text-muted-foreground hover:text-white transition-all animate-scaleShow">
    <g opacity="1">
        <path
            d="m27.629 26.267-2.733-2.732a29 29 0 0 0 1.943-2.219.25.25 0 0 0 .053-.177l-1.02-11.474 1.768-1.578a.25.25 0 0 0 .082-.166l.458-5.524a.25.25 0 0 0-.27-.27l-5.524.457a.25.25 0 0 0-.166.083l-.253.284-7.4-2.315a.25.25 0 0 0-.148 0L7.022 2.951l-.254-.284a.25.25 0 0 0-.165-.083l-5.525-.457a.25.25 0 0 0-.27.27l.456 5.524a.25.25 0 0 0 .083.166l1.77 1.58-1.02 11.472a.25.25 0 0 0 .053.177 29 29 0 0 0 1.942 2.219L1.36 26.267a1.895 1.895 0 0 0 2.68 2.68L6.885 26.1c2.125 1.739 4.578 3.333 7.492 4.87a.25.25 0 0 0 .233 0c2.914-1.535 5.367-3.13 7.493-4.87l2.846 2.846a1.894 1.894 0 1 0 2.68-2.68"
            fill="#94969C"></path>
        <path d="m21.774 19.471 1.293-1.294a.25.25 0 0 1 .415.1l.306.951-.634-7.125-4.428 3.955z"
            fill="#5B99F4"></path>
        <path
            d="m14.5 11.325 5.337-5.977-5.27-1.649a.25.25 0 0 0-.148 0l-5.26 1.646zM16.96 24.8a.25.25 0 0 1-.101-.414l1.294-1.294-3.653-3.261-3.653 3.261 1.293 1.294a.25.25 0 0 1-.1.415l-1.436.461q1.82 1.287 3.767 2.378a.25.25 0 0 0 .245 0 43 43 0 0 0 3.772-2.38zM5.697 18.11a.25.25 0 0 1 .235.067l1.294 1.294 3.048-3.414-4.44-3.965-.636 7.166h.004l.315-.98a.25.25 0 0 1 .18-.167"
            fill="#CECFD2"></path>
        <path
            d="M26.892 21.139 25.873 9.676l-7.148 6.382 3.049 3.413 1.293-1.294a.25.25 0 0 1 .415.1l.617 1.918a.25.25 0 0 1-.062.253l-1.114 1.114 1.973 1.973a29 29 0 0 0 1.943-2.219.25.25 0 0 0 .053-.177m-6.648 3.103-1.114 1.114a.25.25 0 0 1-.254.06l-1.917-.615a.25.25 0 0 1-.1-.415l1.294-1.294-3.653-3.261-.006.005V31q.061 0 .116-.029c2.914-1.536 5.367-3.13 7.493-4.87zM14.5 11.325l7.476-8.371L14.568.636a.3.3 0 0 0-.074-.011v10.694z"
            fill="#61646C"></path>
        <path
            d="m21.774 19.471 1.293-1.294a.25.25 0 0 1 .415.1l.306.951-.634-7.125-4.428 3.955zM16.96 24.8a.25.25 0 0 1-.101-.414l1.294-1.294-3.653-3.261-.006.005v7.836a.25.25 0 0 0 .122-.032 43 43 0 0 0 3.772-2.38zM14.5 11.325l5.337-5.977-5.27-1.649a.3.3 0 0 0-.073-.011v7.631z"
            fill="#85888E"></path>
        <path
            d="m22.923 21.562 1.115-1.114a.25.25 0 0 0 .06-.253l-.615-1.918a.25.25 0 0 0-.306-.163.25.25 0 0 0-.11.063l-1.293 1.294-3.049-3.413 8.928-7.971a.25.25 0 0 0 .082-.166l.456-5.524a.25.25 0 0 0-.27-.27l-5.524.458a.25.25 0 0 0-.165.082L14.5 11.326l-7.732-8.66a.25.25 0 0 0-.165-.082l-5.525-.458a.25.25 0 0 0-.27.27l.456 5.524a.25.25 0 0 0 .083.166l8.927 7.97-3.048 3.414-1.294-1.294a.25.25 0 0 0-.415.1l-.616 1.918a.25.25 0 0 0 .061.253l1.115 1.114-4.706 4.705a1.895 1.895 0 0 0 2.68 2.68l4.705-4.705 1.114 1.114a.25.25 0 0 0 .254.061l1.917-.616a.25.25 0 0 0 .1-.415l-1.294-1.294L14.5 19.83l3.653 3.261-1.294 1.294a.25.25 0 0 0 .1.415l1.918.616a.25.25 0 0 0 .253-.061l1.114-1.114 4.705 4.705a1.895 1.895 0 0 0 2.68-2.68z"
            fill="#CECFD2"></path>
        <path
            d="m4.901 20.194.616-1.917a.25.25 0 0 1 .415-.1l6.209 6.21a.25.25 0 0 1-.1.414l-1.917.616a.25.25 0 0 1-.254-.061l-4.908-4.908a.25.25 0 0 1-.06-.254"
            fill="#61646C"></path>
        <path d="m1.371 26.267 4.706-4.705 2.68 2.68-4.706 4.705a1.895 1.895 0 0 1-2.68-2.68"
            fill="#CECFD2"></path>
        <path
            d="m3.825 23.81.707-.708 2.679 2.68-.707.706zm-1.9 1.899.707-.707L5.31 27.68l-.707.707z"
            fill="#94969C"></path>
        <path
            d="m24.099 20.194-.616-1.917a.25.25 0 0 0-.415-.1l-6.21 6.21a.25.25 0 0 0 .101.414l1.917.616a.25.25 0 0 0 .254-.061l4.908-4.908a.25.25 0 0 0 .06-.254"
            fill="#61646C"></path>
        <path d="m27.629 26.267-4.706-4.705-2.68 2.68 4.706 4.705a1.895 1.895 0 0 0 2.68-2.68"
            fill="#94969C"></path>
        <path d="m21.78 25.783 2.68-2.68.707.708-2.68 2.68zm1.9 1.9 2.68-2.68.706.708-2.68 2.68z"
            fill="#85888E"></path>
        <path d="m27.629 26.267-4.706-4.705-1.34 1.34 6.046 6.045a1.897 1.897 0 0 0 0-2.68"
            fill="#85888E"></path>
        <path
            d="m25.02 26.343 1.34-1.34.706.708-1.34 1.34zm-1.9-1.9 1.34-1.34.707.708-1.34 1.34zm-1.536-1.541 2.454-2.454a.25.25 0 0 0 .06-.254l-.615-1.917a.25.25 0 0 0-.415-.1l-3.105 3.104z"
            fill="#61646C"></path>
        <path
            d="M21.774 19.471 6.768 2.667a.25.25 0 0 0-.165-.082l-5.525-.458a.25.25 0 0 0-.197.072l19.082 19.082zM4.051 28.947l4.705-4.705-1.34-1.34-6.045 6.045a1.897 1.897 0 0 0 2.68 0"
            fill="#85888E"></path>
        <path
            d="m3.264 27.048.707-.707 1.34 1.34-.707.707zm1.9-1.9.707-.707 1.34 1.34-.707.707zm2.252-2.246 2.454 2.454a.25.25 0 0 0 .254.061l1.917-.616a.25.25 0 0 0 .1-.415l-3.104-3.104zm12.901-1.974-9.365-9.363a.5.5 0 1 0-.707.707l9.365 9.363z"
            fill="#61646C"></path>
        <path
            d="m12.38 17.938-3.343 3.344 1.81 1.81L14.5 19.83zM28.12 2.2l-11.5 11.5 2.105 2.358 8.926-7.971a.25.25 0 0 0 .083-.166l.457-5.524a.25.25 0 0 0-.072-.198"
            fill="#85888E"></path>
        <path
            d="m16.954 14.073 1.801-1.802a.5.5 0 0 0-.707-.707l-1.761 1.762zm-4.947 3.532-3.324 3.323.707.707 3.364-3.363z"
            fill="#61646C"></path>
    </g>
</svg>