<svg
    xmlns="http://www.w3.org/2000/svg"
    width="14"
    height="14"
    viewBox="0 0 14 14"
    fill="currentColor"
    class="text-cNeutral-25 size-5"
    color="#fff"
>
    <path
        d="M6.78125 0.5625L6.8125 0.59375C6.9375 0.697917 7.0625 0.697917 7.1875 0.59375L7.21875 0.5625C7.61458 0.1875 8.07292 0 8.59375 0C9.13542 0.0208333 9.58333 0.208333 9.9375 0.5625C10.2917 0.916667 10.4792 1.36458 10.5 1.90625V2.0625C10.5 2.4375 10.4062 2.79167 10.2188 3.125L9.625 4.09375C9.58333 4.15625 9.57292 4.20833 9.59375 4.25C9.59375 4.27083 9.61458 4.30208 9.65625 4.34375C9.67708 4.36458 9.69792 4.375 9.71875 4.375C9.73958 4.375 9.75 4.38542 9.75 4.40625C9.79167 4.42708 9.84375 4.41667 9.90625 4.375L10.875 3.78125C11.2083 3.59375 11.5625 3.5 11.9375 3.5H12.0938C12.6354 3.52083 13.0833 3.70833 13.4375 4.0625C13.7917 4.41667 13.9792 4.86458 14 5.40625C14 5.92708 13.8125 6.38542 13.4375 6.78125L13.4062 6.8125C13.3021 6.9375 13.3021 7.0625 13.4062 7.1875L13.4375 7.21875C13.8125 7.61458 14 8.07292 14 8.59375C13.9792 9.13542 13.7917 9.58333 13.4375 9.9375C13.0833 10.2917 12.6354 10.4792 12.0938 10.5H11.9375C11.5625 10.5 11.2083 10.4062 10.875 10.2188L9.90625 9.625C9.84375 9.58333 9.79167 9.57292 9.75 9.59375C9.72917 9.59375 9.69792 9.61458 9.65625 9.65625C9.61458 9.69792 9.59375 9.72917 9.59375 9.75C9.57292 9.79167 9.58333 9.84375 9.625 9.90625L10.2188 10.875C10.4062 11.2083 10.5 11.5625 10.5 11.9375V12.0938C10.4792 12.6354 10.2917 13.0833 9.9375 13.4375C9.58333 13.7917 9.13542 13.9792 8.59375 14C8.07292 14 7.61458 13.8125 7.21875 13.4375L7.1875 13.4062C7.0625 13.3021 6.9375 13.3021 6.8125 13.4062L6.78125 13.4375C6.38542 13.8125 5.92708 14 5.40625 14C4.86458 13.9792 4.41667 13.7917 4.0625 13.4375C3.70833 13.0833 3.52083 12.6354 3.5 12.0938V11.9375C3.5 11.5625 3.59375 11.2083 3.78125 10.875L4.375 9.90625C4.41667 9.84375 4.42708 9.79167 4.40625 9.75C4.38542 9.75 4.375 9.73958 4.375 9.71875C4.375 9.69792 4.36458 9.67708 4.34375 9.65625C4.30208 9.61458 4.27083 9.59375 4.25 9.59375C4.20833 9.57292 4.15625 9.58333 4.09375 9.625L3.125 10.2188C2.79167 10.4062 2.4375 10.5 2.0625 10.5H1.90625C1.36458 10.4792 0.916667 10.2917 0.5625 9.9375C0.208333 9.58333 0.0208333 9.13542 0 8.59375C0 8.07292 0.1875 7.61458 0.5625 7.21875L0.59375 7.1875C0.697917 7.0625 0.697917 6.9375 0.59375 6.8125L0.5625 6.78125C0.1875 6.38542 0 5.92708 0 5.40625C0.0208333 4.86458 0.208333 4.41667 0.5625 4.0625C0.916667 3.70833 1.36458 3.52083 1.90625 3.5H2.0625C2.4375 3.5 2.79167 3.59375 3.125 3.78125L4.09375 4.375C4.15625 4.41667 4.20833 4.42708 4.25 4.40625C4.25 4.38542 4.26042 4.375 4.28125 4.375C4.30208 4.375 4.32292 4.36458 4.34375 4.34375C4.36458 4.32292 4.375 4.30208 4.375 4.28125C4.375 4.26042 4.38542 4.25 4.40625 4.25C4.42708 4.20833 4.41667 4.15625 4.375 4.09375L3.78125 3.125C3.59375 2.79167 3.5 2.4375 3.5 2.0625V1.90625C3.52083 1.36458 3.70833 0.916667 4.0625 0.5625C4.41667 0.208333 4.86458 0.0208333 5.40625 0C5.92708 0 6.38542 0.1875 6.78125 0.5625Z"
        fill="currentColor"
    ></path>
</svg>