<svg
    xmlns="http://www.w3.org/2000/svg"
    width="16"
    height="16"
    viewBox="0 0 16 16"
    fill="none"
>
    <path
        d="M14.5.5q.438 0 .719.281a.97.97 0 0 1 .281.719V6a.97.97 0 0 1-.281.719A.97.97 0 0 1 14.5 7h-4a.97.97 0 0 1-.719-.281A.97.97 0 0 1 9.5 6q0-.437.281-.719A.97.97 0 0 1 10.5 5h1.375a4.7 4.7 0 0 0-1.656-1.469A4.8 4.8 0 0 0 8 3q-1.594.03-2.812.906-1.22.906-1.75 2.407a.97.97 0 0 1-.47.593q-.375.156-.78.032-.407-.125-.563-.47a1.02 1.02 0 0 1-.062-.78Q2.28 3.562 4 2.28 5.75 1.031 8 1q1.688 0 3.125.75T13.5 3.813V1.5q0-.437.281-.719A.97.97 0 0 1 14.5.5m-.687 8.563a.76.76 0 0 1 .562.468q.188.375.063.781-.75 2.126-2.47 3.407-1.75 1.25-4 1.281a6.6 6.6 0 0 1-3.093-.75A7.04 7.04 0 0 1 2.5 12.188V14.5a.97.97 0 0 1-.281.719.97.97 0 0 1-.719.281.97.97 0 0 1-.719-.281A.97.97 0 0 1 .5 14.5V10q0-.437.281-.719A.97.97 0 0 1 1.5 9h4q.437 0 .719.281A.97.97 0 0 1 6.5 10a.97.97 0 0 1-.281.719A.97.97 0 0 1 5.5 11H4.125q.657.938 1.656 1.469A4.8 4.8 0 0 0 8 13q1.594-.03 2.813-.906 1.218-.906 1.75-2.406.125-.407.468-.563.375-.188.781-.062"
        fill="#FAFAFA"
    ></path>
</svg>