<svg xmlns="http://www.w3.org/2000/svg" width="40" height="40" viewBox="0 0 40 40" fill="currentColor" class="text-primary-500/30 px-1"><g opacity=".9" fill="currentColor"><path d="M13.334 30.062a23.3 23.3 0 0 0 6 5.296V4.608l-6 3.146zm7.333 5.288a23.3 23.3 0 0 0 6-5.292V7.755l-6-3.147zM28 28.254c2.6-3.85 4.83-9.334 5.285-17.028L28 8.456zm-16 .001V8.453l-5.285 2.77C7.17 18.924 9.4 24.406 12 28.256"></path><path d="M35.638 9.447 20.305 1.409a.68.68 0 0 0-.611 0L4.36 9.447a.67.67 0 0 0-.36.611C4.067 13.561 5.123 31.4 19.71 38.6a.67.67 0 0 0 .58 0C34.877 31.4 35.934 13.56 36 10.058a.67.67 0 0 0-.362-.611m-14.986 27.46a1.41 1.41 0 0 1-1.305 0c-3.866-2.133-12.973-8.893-13.963-25.6a1.34 1.34 0 0 1 .712-1.262l13.285-6.967a1.33 1.33 0 0 1 1.238 0l13.285 6.965a1.34 1.34 0 0 1 .712 1.263c-.99 16.71-10.096 23.47-13.965 25.602"></path></g></svg>