<svg xmlns="http://www.w3.org/2000/svg" width="36" height="36" viewBox="0 0 36 36" fill="currentColor" class="text-primary-500/30 px-1"><path d="M35.84 2.6c0-.12-.04-.2-.12-.28l-2.2-2.2c-.04-.08-.16-.12-.24-.12h-1.32c-.2 0-.32.12-.36.28l-.48 2.08-4.48 3.84c-1.48-.88-3-1.16-3.88-1.28h-.08c-.4 0-.76.28-.8.72v.08c-.08.44.28.88.72.92 1.04.12 2.84.56 4.36 2.08 1.6 1.6 2.16 3.64 2.4 4.76.08.4.44.68.8.68.08 0 .12 0 .2-.04.44-.12.68-.56.6-.96-.16-.88-.48-2.4-1.28-3.84l3.84-4.52 2.04-.48c.16-.04.32-.2.28-.4z" fill="currentColor"></path><path d="M26.36 9.24c-.6-.6-1.24-1-1.84-1.28L1.56 31.88C.56 33 .12 35.52.12 35.52zM.6 36s2.52-.44 3.64-1.44L28 11.76c-.28-.64-.64-1.36-1.16-2z" fill="currentColor"></path></svg>