<svg width="24" height="30" viewBox="0 0 24 30" xmlns="http://www.w3.org/2000/svg"
    color="#fff"
    class="size-8 text-muted-foreground hover:text-white transition-all group-hover:text-white">
    <path fill-rule="evenodd" clip-rule="evenodd"
        d="M4.6642 1.2956H6.65185C6.71169 1.2956 6.76026 1.34418 6.76026 1.40402V3.09445C6.76026 3.12427 6.78458 3.14866 6.81447 3.14866H8.50497C8.56481 3.14866 8.61338 3.19723 8.61338 3.25707V5.24472C8.61338 5.30456 8.56481 5.35314 8.50497 5.35314H6.81447C6.78458 5.35314 6.76026 5.37746 6.76026 5.40734V7.09784C6.76026 7.15768 6.71169 7.20626 6.65185 7.20626H4.6642C4.60436 7.20626 4.55578 7.15768 4.55578 7.09784V5.40734C4.55578 5.37746 4.53146 5.35314 4.50157 5.35314H2.81108C2.75124 5.35314 2.70266 5.30456 2.70266 5.24472V3.25707C2.70266 3.19723 2.75124 3.14866 2.81108 3.14866H4.50157C4.53146 3.14866 4.55578 3.12434 4.55578 3.09445V1.40402C4.55578 1.34411 4.60429 1.2956 4.6642 1.2956ZM2.88961 22.3737C2.709 22.5901 2.86164 22.9247 3.14772 22.9247H4.38196C4.41185 22.9247 4.43617 22.949 4.43617 22.9789V24.7908C4.43617 24.8111 4.42586 24.8285 4.40807 24.8383C4.39028 24.8481 4.36999 24.8474 4.3529 24.8365L1.61914 23.0956C1.60308 23.0854 1.59405 23.069 1.59405 23.0499V16.2205C1.59405 16.035 1.44366 15.8846 1.25805 15.8846H0.390087C0.369287 15.8846 0.351431 15.8737 0.341895 15.8552C0.332359 15.8367 0.333895 15.8159 0.345991 15.7989L2.97095 12.1238C2.98145 12.1091 2.997 12.1011 3.01505 12.1011C3.03309 12.1011 3.04865 12.1091 3.05914 12.1238L5.6841 15.7989C5.6962 15.8159 5.69773 15.8367 5.6882 15.8552C5.67866 15.8737 5.66081 15.8846 5.64001 15.8846H4.7721C4.58657 15.8846 4.4361 16.035 4.4361 16.2205V20.1917C4.4361 20.2034 4.43284 20.2136 4.42599 20.2232L2.89364 22.3685C2.89287 22.3696 2.8921 22.3705 2.89121 22.3716L2.88961 22.3737ZM18.1534 16.2205C18.1534 16.035 18.003 15.8846 17.8174 15.8846H16.9494C16.9286 15.8846 16.9108 15.8737 16.9013 15.8552C16.8917 15.8367 16.8933 15.8159 16.9054 15.799L19.5303 12.1239C19.5408 12.1092 19.5564 12.1012 19.5744 12.1012C19.5925 12.1012 19.608 12.1092 19.6185 12.1239L22.2435 15.799C22.2556 15.8159 22.2571 15.8367 22.2476 15.8553C22.238 15.8738 22.2202 15.8847 22.1994 15.8847H21.3315C21.1459 15.8847 20.9955 16.0351 20.9955 16.2206V23.0499C20.9955 23.069 20.9865 23.0854 20.9704 23.0956L18.2366 24.8365C18.2195 24.8474 18.1992 24.8481 18.1814 24.8383C18.1637 24.8285 18.1534 24.8111 18.1534 24.7908V22.9789C18.1534 22.949 18.1777 22.9247 18.2076 22.9247H19.4418C19.6981 22.9247 19.8954 22.629 19.6977 22.3711C19.6973 22.3705 19.6969 22.3701 19.6966 22.3696L18.1635 20.2232C18.1567 20.2136 18.1534 20.2034 18.1534 20.1917V16.2205H18.1534ZM16.1044 18.492C16.0939 18.4772 16.0783 18.4692 16.0603 18.4692C16.0422 18.4692 16.0267 18.4772 16.0162 18.492L13.3912 22.167C13.3791 22.184 13.3776 22.2048 13.3871 22.2233C13.3967 22.2418 13.4145 22.2527 13.4353 22.2527H14.3032C14.4888 22.2527 14.6392 22.4031 14.6392 22.5887V27.0287C14.6392 27.0489 14.6495 27.0664 14.6673 27.0761C14.6851 27.0859 14.7054 27.0852 14.7225 27.0744L17.4563 25.3334C17.4724 25.3232 17.4814 25.3068 17.4814 25.2877V22.5887C17.4814 22.4031 17.6318 22.2527 17.8174 22.2527H18.6852C18.706 22.2527 18.7238 22.2418 18.7334 22.2233C18.7429 22.2048 18.7414 22.184 18.7293 22.167L16.1044 18.492ZM9.78849 22.9247H8.67642C8.64653 22.9247 8.62222 22.949 8.62222 22.9789V27.5256C8.62222 27.5446 8.63124 27.561 8.6473 27.5712L11.2657 29.2386C11.2838 29.2502 11.3057 29.2502 11.3239 29.2386L13.9423 27.5712C13.9583 27.561 13.9674 27.5446 13.9674 27.5256V22.9789C13.9674 22.949 13.943 22.9247 13.9132 22.9247H12.801V22.9233L12.6788 22.9234C12.4133 22.9236 12.2472 22.6171 12.406 22.3948L13.9573 20.2231C13.9641 20.2135 13.9674 20.2034 13.9674 20.1916V11.9792C13.9674 11.7936 14.1178 11.6432 14.3033 11.6432H16.3281C16.3489 11.6432 16.3667 11.6324 16.3763 11.6139C16.3858 11.5954 16.3843 11.5745 16.3722 11.5576L11.3388 4.51058C11.3283 4.49586 11.3128 4.48786 11.2947 4.48786C11.2767 4.48786 11.2611 4.49586 11.2506 4.51058L6.21735 11.5576C6.20526 11.5744 6.20372 11.5953 6.21326 11.6139C6.22279 11.6324 6.24065 11.6432 6.26145 11.6432H8.28622C8.47182 11.6432 8.62222 11.7936 8.62222 11.9792V20.1917C8.62222 20.2034 8.62548 20.2136 8.63233 20.2232L10.1835 22.3949C10.2909 22.5453 10.2552 22.7544 10.1047 22.8614C10.0006 22.9355 9.90951 22.9234 9.78855 22.9233V22.9247H9.78849ZM7.86695 27.0744C7.8841 27.0854 7.90433 27.086 7.92212 27.0762C7.93991 27.0664 7.95022 27.049 7.95022 27.0287V22.5887C7.95022 22.4032 8.10062 22.2528 8.28615 22.2528H9.15405C9.17486 22.2528 9.19271 22.2419 9.20225 22.2234C9.21178 22.2049 9.21025 22.184 9.19815 22.1671L6.57319 18.492C6.5627 18.4773 6.54714 18.4693 6.5291 18.4693C6.51105 18.4693 6.49549 18.4773 6.485 18.492L3.86004 22.1671C3.84794 22.184 3.84641 22.2048 3.85594 22.2234C3.86548 22.2419 3.88333 22.2528 3.90413 22.2528H4.77198C4.95751 22.2528 5.10798 22.4032 5.10798 22.5887V25.2877C5.10798 25.3068 5.11694 25.3232 5.13306 25.3334L7.86695 27.0744ZM18.4054 2.67672H20.3931C20.4529 2.67672 20.5015 2.7253 20.5015 2.78514V4.47557C20.5015 4.50539 20.5258 4.52978 20.5557 4.52978H22.2462C22.3061 4.52978 22.3546 4.57835 22.3546 4.63819V6.62584C22.3546 6.68568 22.3061 6.73426 22.2462 6.73426H20.5557C20.5259 6.73426 20.5015 6.75858 20.5015 6.78846V8.47896C20.5015 8.5388 20.4529 8.58738 20.3931 8.58738H18.4054C18.3456 8.58738 18.297 8.5388 18.297 8.47896V6.78846C18.297 6.75858 18.2727 6.73426 18.2428 6.73426H16.5523C16.4925 6.73426 16.4439 6.68568 16.4439 6.62584V4.63819C16.4439 4.57835 16.4925 4.52978 16.5523 4.52978H18.2428C18.2726 4.52978 18.297 4.50546 18.297 4.47557V2.78514C18.297 2.72523 18.3456 2.67672 18.4054 2.67672ZM22.3512 8.9075V10.1698C22.3512 10.3944 22.5333 10.5764 22.7578 10.5764C22.9823 10.5764 23.1643 10.3944 23.1643 10.1698V8.9075C23.1643 8.68299 22.9823 8.50098 22.7578 8.50098C22.5333 8.50098 22.3512 8.68299 22.3512 8.9075ZM22.3512 11.9097C22.3512 11.6852 22.5333 11.5032 22.7578 11.5032C22.9823 11.5032 23.1643 11.6852 23.1643 11.9097V13.1721C23.1643 13.3966 22.9823 13.5786 22.7578 13.5786C22.5333 13.5786 22.3512 13.3966 22.3512 13.1721V11.9097ZM13.912 1.15915C13.912 0.93464 14.094 0.752625 14.3185 0.752625C14.543 0.752625 14.7251 0.93464 14.7251 1.15915V2.42149C14.7251 2.646 14.543 2.82802 14.3185 2.82802C14.094 2.82802 13.912 2.646 13.912 2.42149V1.15915ZM13.912 4.16139C13.912 3.93688 14.094 3.75486 14.3185 3.75486C14.543 3.75486 14.7251 3.93688 14.7251 4.16139V5.42373C14.7251 5.64824 14.543 5.83026 14.3185 5.83026C14.094 5.83026 13.912 5.64824 13.912 5.42373V4.16139ZM0.679175 6.17349C0.679175 5.94898 0.861191 5.76696 1.0857 5.76696C1.31021 5.76696 1.49223 5.94898 1.49223 6.17349V7.43582C1.49223 7.66034 1.31021 7.84235 1.0857 7.84235C0.861191 7.84235 0.679175 7.66034 0.679175 7.43582V6.17349ZM0.679175 9.17573C0.679175 8.95122 0.861191 8.7692 1.0857 8.7692C1.31021 8.7692 1.49223 8.95122 1.49223 9.17573V10.4381C1.49223 10.6626 1.31021 10.8446 1.0857 10.8446C0.861191 10.8446 0.679175 10.6626 0.679175 10.4381V9.17573Z"
        fill="currentColor"></path>
</svg>