<svg xmlns="http://www.w3.org/2000/svg" width="40" height="40" viewBox="0 0 40 40" fill="currentColor" class="text-primary-500/30 px-1"><g opacity="0.9" clip-path="url(#a)" fill="currentColor"><path d="M6.248 32.548a.625.625 0 0 0-.424 1.126c.072.053 1.402 1.011 3.764 1.087-.409.257-.85.46-1.31.604a.626.626 0 0 0-.149 1.176c.988.406 2.07.523 3.122.336a6.5 6.5 0 0 1-.795.675.625.625 0 0 0 .043 1.067c.173.096.971.44 2.742-.111q-.156.193-.363.331a.625.625 0 0 0-.27.735.635.635 0 0 0 .657.423c.13-.014 3.215-.361 5.265-2.703 1.235-1.412-.09-3.128-.803-4.05a9 9 0 0 1-.349-.47c-.497-.752-2.012-3.043-1.772-5.556.161-1.684 1.567-2.765 2.39-3.26a2.78 2.78 0 0 0 1.25-1.697c.27-1.08.252-2.768-1.372-4.68l-.052-.055C17.728 17.44 8.437 8.766 6.878.51a.625.625 0 0 0-1.237.06c-.024.286-.403 5.029.893 9.642a115 115 0 0 1-2.797-4.72.625.625 0 0 0-1.168.24 19.2 19.2 0 0 0 1.202 7.905 18.7 18.7 0 0 1-2.44-4.087.625.625 0 0 0-1.205.218c-.005.217-.055 3.95 2.377 8.045a15 15 0 0 1-1.37-1.63.625.625 0 0 0-1.13.43c.018.173.395 3.413 3.373 6.856a9.6 9.6 0 0 1-1.517-1.2.625.625 0 0 0-1.028.657 14.04 14.04 0 0 0 3.905 5.423 7 7 0 0 1-1.325-.534.625.625 0 0 0-.833.864c.071.125 1.566 2.666 5.348 3.685a4.9 4.9 0 0 1-1.678.183M31.87 36.54a.625.625 0 0 0-.149-1.175 5.6 5.6 0 0 1-1.31-.604c2.363-.076 3.692-1.034 3.765-1.087a.625.625 0 0 0-.424-1.126 4.9 4.9 0 0 1-1.678-.184c3.782-1.018 5.276-3.559 5.348-3.684a.624.624 0 0 0-.833-.864q-.636.333-1.325.534a14.04 14.04 0 0 0 3.904-5.423.625.625 0 0 0-1.027-.657q-.698.676-1.518 1.2c2.979-3.443 3.355-6.683 3.373-6.856a.624.624 0 0 0-1.129-.43 15 15 0 0 1-1.37 1.63c2.432-4.096 2.382-7.828 2.377-8.045a.626.626 0 0 0-1.205-.218 18.7 18.7 0 0 1-2.44 4.087 19.2 19.2 0 0 0 1.201-7.904.624.624 0 0 0-1.167-.241 115 115 0 0 1-2.797 4.72C34.76 5.6 34.383.857 34.358.57a.625.625 0 0 0-1.235-.06c-1.559 8.258-10.85 16.93-10.944 17.017l-.052.054c-1.624 1.913-1.643 3.602-1.372 4.681a2.78 2.78 0 0 0 1.249 1.697c.824.495 2.23 1.576 2.39 3.26.241 2.513-1.274 4.804-1.772 5.557a9 9 0 0 1-.349.47c-.712.921-2.037 2.637-.802 4.049 2.05 2.342 5.134 2.69 5.265 2.703a.634.634 0 0 0 .658-.423.625.625 0 0 0-.272-.734 1.6 1.6 0 0 1-.362-.332c1.77.551 2.569.207 2.741.11a.625.625 0 0 0 .044-1.066 6.5 6.5 0 0 1-.796-.675 5.63 5.63 0 0 0 3.122-.336"></path></g><defs><clipPath id="a"><path fill="#fff" d="M0 0h40v40H0z"></path></clipPath></defs></svg>